<svg width="194" height="194" viewBox="0 0 194 194" fill="none" xmlns="http://www.w3.org/2000/svg">
<g filter="url(#filter0_d)">
<path d="M92.5 185C67.7928 185 44.5633 175.378 27.0926 157.907C9.62177 140.437 0 117.207 0 92.5C0 67.7928 9.62177 44.5633 27.0926 27.0926C44.5633 9.62177 67.7928 0 92.5 0C117.207 0 140.437 9.62177 157.907 27.0926C175.378 44.5633 185 67.7928 185 92.5C185 117.207 175.378 140.437 157.907 157.907C140.437 175.378 117.207 185 92.5 185ZM92.5 14.4531C49.4653 14.4531 14.4531 49.4653 14.4531 92.5C14.4531 135.535 49.4653 170.547 92.5 170.547C135.535 170.547 170.547 135.535 170.547 92.5C170.547 49.4653 135.535 14.4531 92.5 14.4531ZM92.5 99.7266C96.4915 99.7266 99.7266 96.4915 99.7266 92.5C99.7266 88.5085 96.4915 85.2734 92.5 85.2734C88.5085 85.2734 85.2734 88.5085 85.2734 92.5C85.2734 96.4915 88.5085 99.7266 92.5 99.7266ZM92.5 127.188C73.3736 127.188 57.8125 111.626 57.8125 92.5C57.8125 73.3736 73.3736 57.8125 92.5 57.8125C111.626 57.8125 127.188 73.3736 127.188 92.5C127.188 111.626 111.626 127.188 92.5 127.188ZM92.5 72.2656C81.3426 72.2656 72.2656 81.3426 72.2656 92.5C72.2656 103.657 81.3426 112.734 92.5 112.734C103.657 112.734 112.734 103.657 112.734 92.5C112.734 81.3426 103.657 72.2656 92.5 72.2656ZM92.5 43.3594V28.9062C57.4342 28.9062 28.9062 57.4342 28.9062 92.5H43.3594C43.3594 65.4046 65.4032 43.3594 92.5 43.3594ZM156.094 92.5H141.641C141.641 119.595 119.597 141.641 92.5 141.641V156.094C127.566 156.094 156.094 127.566 156.094 92.5Z" fill="#CA680D"/>
</g>
<defs>
<filter id="filter0_d" x="0" y="0" width="194" height="194" filterUnits="userSpaceOnUse" color-interpolation-filters="sRGB">
<feFlood flood-opacity="0" result="BackgroundImageFix"/>
<feColorMatrix in="SourceAlpha" type="matrix" values="0 0 0 0 0 0 0 0 0 0 0 0 0 0 0 0 0 0 127 0"/>
<feOffset dx="5" dy="5"/>
<feGaussianBlur stdDeviation="2"/>
<feColorMatrix type="matrix" values="0 0 0 0 1 0 0 0 0 1 0 0 0 0 1 0 0 0 0.2 0"/>
<feBlend mode="lighten" in2="BackgroundImageFix" result="effect1_dropShadow"/>
<feBlend mode="normal" in="SourceGraphic" in2="effect1_dropShadow" result="shape"/>
</filter>
</defs>
</svg>
